<svg width="1000" height="1000" viewBox="0 0 1000 1000" fill="none" xmlns="http://www.w3.org/2000/svg">
<g clip-path="url(#clip0_69_4)">
<path fill-rule="evenodd" clip-rule="evenodd" d="M1000 500C1000 776.142 776.142 1000 500 1000C223.858 1000 0 776.142 0 500C0 223.858 223.858 0 500 0C776.142 0 1000 223.858 1000 500ZM215.585 341.706C196.085 347.271 179.321 336.883 173.377 330.993C158.31 316.873 156.639 300.634 157.687 294.28C166.718 258.244 187.383 252.611 199.858 249.21C202.167 248.58 204.196 248.027 205.818 247.372C216.203 243.177 312.416 224.874 336.856 221.416C361.295 217.958 446.771 215.859 451.77 215.765C456.769 215.672 526.841 218.862 574.436 223.472C612.511 227.161 676.635 242.064 703.937 249.054C716.154 251.66 751.787 261.962 796.576 282.327C845.846 304.731 850.638 309.763 855.938 315.329C856.661 316.088 857.392 316.856 858.248 317.68C863.951 323.174 867.193 332.515 868.101 336.499C870.059 343.13 871.339 359.842 860.795 373.642C847.615 390.892 833.146 392.663 823.657 393.34C814.168 394.018 807.632 392.14 796.512 385.847C785.392 379.554 736.442 355.965 732.943 356.031C677.771 336.659 610.127 322.489 583.202 317.825C548.587 311.971 458.395 302.557 374.552 311.727C281.965 321.853 247.924 332.055 224.44 339.092L224.436 339.093L224.432 339.095L224.428 339.096C221.334 340.023 218.422 340.896 215.585 341.706ZM214.109 423.247C186.848 436.26 184.961 495.805 235.953 494.851C241.357 493.637 247.144 492.288 253.297 490.854L253.299 490.854C349.385 468.46 534.775 425.254 749.004 546.263C773.77 560.253 831.041 520.724 785.725 477.564C700.523 422.982 466.916 335.703 214.109 423.247ZM253.116 637.055C205.124 637.953 212.094 582.813 237.515 578.337C487.541 513.248 663.932 578.86 720.875 619.802C767.909 647.927 726.333 697.714 691.871 673.354C554.204 585.514 342.006 612.555 253.116 637.055ZM583.239 782.275L504.787 757.9L504.01 672.714L455.587 740.26L375.383 715.901L423.874 783.729L376.619 851.265L456.359 824.862L506.007 891.513L505.24 807.494L583.239 782.275Z" fill="#D53131"/>
</g>
<defs>
<clipPath id="clip0_69_4">
<rect width="1000" height="1000" fill="white"/>
</clipPath>
</defs>
</svg>
